# xmcd
#
# Track frame offsets: 
#        150
#        15037
#        38981
#        59876
#        78876
#        90598
#        101040
#        112167
#        119831
#        128791
#        139707
#        155005
#        169336
#        182205
#        196383
#        207510
#        221747
#        232848
#        251169
#        265904
#        278975
#        293053
#        305411
#
# Disc length: 4276 seconds
#
# Revision: 0
# Processed by: cddbd v1.5.2PL0 Copyright (c) Steve Scherf et al.
# Submitted via: ExactAudioCopy v0.90b4
#
DISCID=6010b217
DTITLE=Ernie K-Doe - Here Come The Girls  A History 1960-1970 [CD2]
DYEAR=2011
DGENRE=R&B
TTITLE0=You Got To Love Me
TTITLE1=Stoop Down
TTITLE2=(I Can't Believe) She Gave It All To Me
TTITLE3=Hotcha Mama
TTITLE4=Waiting At The Station
TTITLE5=She's Waiting
TTITLE6=Rub Dub Dub
TTITLE7=Heebie Jeebies
TTITLE8=Hurry Up And Know It
TTITLE9=Lonelyology (For Your Love)
TTITLE10=The Fight (Grandma And Grandpa)
TTITLE11=Let Me Love You
TTITLE12=So Good
TTITLE13=Here Come The Girls
TTITLE14=Back Street Lover
TTITLE15=A Place Where We Can Be Free
TTITLE16=Whoever Is Thrilling You (Is Killing Me)
TTITLE17=I'm Only Human
TTITLE18=Kiss Tomorrow Goodbye
TTITLE19=Fly Away With Me
TTITLE20=A Long Way Back Home
TTITLE21=Lawdy Mama
TTITLE22=Talkin' Bout This Woman
EXTD=
EXTT0=
EXTT1=
EXTT2=
EXTT3=
EXTT4=
EXTT5=
EXTT6=
EXTT7=
EXTT8=
EXTT9=
EXTT10=
EXTT11=
EXTT12=
EXTT13=
EXTT14=
EXTT15=
EXTT16=
EXTT17=
EXTT18=
EXTT19=
EXTT20=
EXTT21=
EXTT22=
PLAYORDER=
